<?xml version="1.0" standalone="no"?>
<!DOCTYPE svg PUBLIC "-//W3C//DTD SVG 20010904//EN"
 "http://www.w3.org/TR/2001/REC-SVG-20010904/DTD/svg10.dtd">
<svg version="1.0" xmlns="http://www.w3.org/2000/svg"
 width="225.000000pt" height="225.000000pt" viewBox="0 0 225.000000 225.000000"
 preserveAspectRatio="xMidYMid meet">

<g transform="translate(0.000000,225.000000) scale(0.100000,-0.100000)"
fill="#000000" stroke="none">
<path d="M1025 2244 c-271 -29 -504 -140 -691 -328 -160 -161 -249 -321 -305
-551 -30 -119 -32 -340 -5 -460 53 -238 141 -401 305 -566 171 -171 341 -263
579 -315 115 -25 339 -23 459 5 223 51 411 157 566 320 212 223 312 474 310
781 -3 541 -368 984 -902 1095 -77 16 -247 26 -316 19z m286 -100 c432 -82
760 -414 838 -848 18 -96 13 -279 -9 -384 -80 -380 -365 -683 -743 -788 -112
-31 -324 -43 -433 -25 -409 70 -731 359 -842 759 -24 88 -27 113 -27 267 0
149 3 180 24 255 25 87 71 205 99 250 142 231 312 376 547 468 46 18 156 46
215 55 67 11 255 6 331 -9z"/>
<path d="M597 1638 c-8 -46 -43 -222 -76 -392 -34 -171 -61 -313 -61 -318 0
-4 7 -8 15 -8 8 0 15 4 15 8 0 5 9 51 20 103 37 179 130 661 130 675 0 8 -6
14 -14 14 -9 0 -18 -27 -29 -82z"/>
<path d="M696 1703 c-3 -10 -37 -182 -76 -383 -39 -201 -73 -373 -76 -382 -4
-13 0 -18 15 -18 14 0 21 6 21 18 0 10 34 189 75 398 41 208 75 380 75 382 0
1 -6 2 -14 2 -8 0 -17 -8 -20 -17z"/>
<path d="M771 1658 c-7 -35 -41 -211 -77 -391 -35 -181 -64 -333 -64 -338 0
-5 7 -9 15 -9 8 0 15 2 15 5 0 2 34 175 75 384 41 209 75 387 75 396 0 8 -6
15 -14 15 -9 0 -18 -22 -25 -62z"/>
<path d="M866 1703 c-3 -10 -37 -182 -76 -383 -39 -201 -73 -373 -76 -382 -4
-13 0 -18 15 -18 13 0 21 6 21 18 0 9 34 188 75 397 41 209 75 381 75 383 0 1
-6 2 -14 2 -8 0 -17 -8 -20 -17z"/>
<path d="M945 1678 c-4 -24 -38 -200 -76 -392 -38 -192 -69 -353 -69 -358 0
-4 6 -8 14 -8 10 0 18 19 25 53 6 28 33 167 60 307 28 140 59 297 69 348 17
87 17 92 1 92 -13 0 -19 -12 -24 -42z"/>
<path d="M1050 1717 c0 -2 -11 -60 -25 -128 -42 -212 -60 -199 262 -199 133 0
244 -3 246 -7 10 -16 -16 -128 -31 -140 -12 -10 -83 -13 -278 -13 -240 0 -262
-1 -269 -17 -8 -21 -55 -259 -55 -279 0 -12 47 -14 283 -14 162 0 309 5 343
11 204 38 343 206 344 415 0 121 -62 254 -149 316 -74 53 -108 58 -401 58
-149 0 -270 -1 -270 -3z"/>
<path d="M430 796 c0 -2 -11 -58 -25 -126 -14 -68 -25 -127 -25 -131 0 -16
149 -10 181 7 56 28 87 142 56 204 -15 31 -65 49 -134 49 -29 1 -53 -1 -53 -3z
m113 -55 c44 -17 40 -116 -6 -145 -24 -16 -86 -25 -88 -13 -1 11 12 88 22 130
10 39 26 45 72 28z"/>
<path d="M695 788 c-2 -7 -15 -68 -28 -135 l-24 -123 98 0 c79 0 98 3 103 16
11 28 7 29 -64 26 -74 -4 -76 -2 -64 46 6 20 12 22 69 22 48 0 64 4 69 16 12
30 5 34 -60 34 -56 0 -65 2 -60 16 3 9 6 22 6 29 0 11 19 15 73 17 66 3 72 5
75 26 3 21 1 22 -93 22 -68 0 -97 -4 -100 -12z"/>
<path d="M920 790 c0 -6 11 -33 25 -60 14 -27 25 -54 25 -59 0 -5 -25 -39 -56
-75 l-55 -66 35 0 c30 0 40 7 70 46 l36 46 19 -46 c18 -40 24 -46 51 -46 l30
0 -26 58 c-14 31 -28 62 -30 67 -2 6 18 38 46 72 27 34 50 64 50 67 0 3 -14 6
-30 6 -25 0 -36 -9 -63 -46 l-32 -46 -19 46 c-17 39 -24 46 -48 46 -15 0 -28
-5 -28 -10z"/>
<path d="M1151 778 c-8 -21 -5 -23 30 -26 22 -2 39 -6 39 -10 0 -9 -28 -157
-36 -187 -6 -22 -3 -25 24 -25 28 0 30 2 41 63 30 159 29 157 72 157 35 0 39
3 39 25 l0 25 -100 0 c-95 0 -101 -1 -109 -22z"/>
<path d="M1397 793 c-3 -5 -15 -57 -27 -118 -12 -60 -24 -118 -26 -127 -5 -16
4 -18 95 -18 83 0 101 3 101 15 0 8 0 18 0 21 0 4 -27 7 -60 6 -66 0 -74 5
-64 43 6 23 10 25 70 25 35 0 64 4 64 9 0 5 3 16 6 25 5 14 -4 16 -61 16 -57
0 -66 2 -61 16 3 9 6 22 6 30 0 11 16 14 69 14 68 0 81 7 81 41 0 11 -187 12
-193 2z"/>
<path d="M1637 793 c-3 -5 -15 -57 -27 -118 -12 -60 -24 -118 -26 -127 -4 -14
1 -18 25 -18 27 0 31 4 36 38 10 60 12 62 54 62 43 0 51 -10 51 -66 0 -30 3
-34 26 -34 25 0 26 1 23 64 -3 50 0 68 14 83 17 20 23 69 9 90 -4 6 -20 17
-35 22 -32 12 -144 15 -150 4z m132 -57 c25 -29 -17 -66 -75 -66 -25 0 -29 14
-18 58 5 18 13 22 44 22 21 0 43 -6 49 -14z"/>
<path d="M1840 586 c0 -2 7 -9 15 -16 9 -7 15 -8 15 -2 0 5 -7 12 -15 16 -8 3
-15 4 -15 2z"/>
<path d="M1825 554 c0 -27 10 -32 18 -10 3 8 0 19 -6 24 -9 8 -12 4 -12 -14z"/>
</g>
</svg>
